<svg xmlns="http://www.w3.org/2000/svg" viewBox="0 0 942.28 937.35"><defs><style>.cls-1{fill:#025050;}.cls-2{fill:#feffff;}</style></defs><title>Plan de travail 1</title><g id="Calque_2" data-name="Calque 2"><path class="cls-1" d="M9.78,433.66a360.15,360.15,0,0,1,26.58-136q34.17-83.52,98.08-144.28Q199,93.86,285.67,55.88a560.19,560.19,0,0,1,181-45.56Q481.87,9,497.05,9.05,597.64,9.05,685,60.94q100,59.49,162,165.8,62,105,81,237.29a335.68,335.68,0,0,1,3.8,50,322.35,322.35,0,0,1-13.28,91.75q-20.25,69-64.23,122.79T749.53,825.38a556.9,556.9,0,0,1-131.94,69A601.46,601.46,0,0,1,473,927.89a325.75,325.75,0,0,1-40.5,2.54,344.64,344.64,0,0,1-101.89-15.19q-68.34-21.53-122.14-65.5T112.28,746a548.64,548.64,0,0,1-68-130,575,575,0,0,1-32.6-143Q9.78,452.64,9.78,433.66Z"/><path class="cls-2" d="M453.09,477.87V701.71a10.2,10.2,0,1,1-20.39,0V513.44L353.46,626.6l-10.37,14.81-.1.15-.1.14v-.29L332.52,626.6,253.28,513.44V701.71h0a10.2,10.2,0,1,1-20.39,0c0-.22,0-.44,0-.66V477.87h20.39v0L343,606,432.7,477.91v0Z"/><path class="cls-2" d="M708.7,477.87V701.71a10.2,10.2,0,1,1-20.4,0V513.44L609.07,626.6,598.7,641.41l-.1.15-.11.14v-.29L588.13,626.6,508.89,513.44V701.05c0,.22,0,.44,0,.66a10.2,10.2,0,0,1-20.4,0h0V477.87h20.4v0L598.6,606l89.7-128.11v0Z"/><path class="cls-2" d="M432.72,419.71,354.16,251.24l-11.05-23.68h-.25l-11.05,23.68L253.25,419.71,232.86,468h20.39l25.52-54.72H407.2L432.72,468h20.39Zm-89.66-26.86H288.28l54.63-117.16v.11l.08-.16.07.16v-.11l54.63,117.16Z"/><path class="cls-2" d="M688.3,242.77s4.57-10.19,10.2-10.19a10.2,10.2,0,0,1,10.2,10.19V466.61H688.3V278.34L609.07,391.5,598.7,406.31l-.1.15-.11.14v-.29L588.13,391.5,508.89,278.34V466.61h-20.4V242.77h.16a10.18,10.18,0,0,1,10.06-8.54c5.07,0,10.06,8.54,10.06,8.54h.12v0L598.6,370.92Z"/></g></svg>