<svg xmlns="http://www.w3.org/2000/svg" viewBox="0 0 942.28 937.35"><defs><style>.cls-1{fill:#025050;}</style></defs><title>Plan de travail 1 copie 2</title><g id="Calque_2" data-name="Calque 2"><path class="cls-1" d="M9.78,433.66a360.15,360.15,0,0,1,26.58-136q34.17-83.52,98.08-144.28Q199,93.86,285.67,55.88a560.19,560.19,0,0,1,181-45.56Q481.87,9,497.05,9.05,597.64,9.05,685,60.94q100,59.49,162,165.8,62,105,81,237.29a335.68,335.68,0,0,1,3.8,50,322.35,322.35,0,0,1-13.28,91.75q-20.25,69-64.23,122.79T749.53,825.38a556.9,556.9,0,0,1-131.94,69A601.46,601.46,0,0,1,473,927.89a325.75,325.75,0,0,1-40.5,2.54,344.64,344.64,0,0,1-101.89-15.19q-68.34-21.53-122.14-65.5T112.28,746a548.64,548.64,0,0,1-68-130,575,575,0,0,1-32.6-143Q9.78,452.64,9.78,433.66Z"/></g></svg>