<?xml version="1.0" encoding="utf-8"?>
<!-- Generator: Adobe Illustrator 23.0.3, SVG Export Plug-In . SVG Version: 6.00 Build 0)  -->
<svg version="1.1" id="Calque_1" xmlns="http://www.w3.org/2000/svg" xmlns:xlink="http://www.w3.org/1999/xlink" x="0px" y="0px"
	 viewBox="0 0 200 200" style="enable-background:new 0 0 200 200;" xml:space="preserve">
<style type="text/css">
	.st0{display:none;}
	.st1{display:inline;fill:none;stroke:#000000;stroke-width:10;stroke-miterlimit:10;}
	.st2{display:inline;fill:#010101;}
	.st3{display:inline;}
	.st4{opacity:0.9746;}
	.st5{fill-rule:evenodd;clip-rule:evenodd;fill:#8E75FF;}
	.st6{opacity:0.405;fill-rule:evenodd;clip-rule:evenodd;fill:#8E75FF;enable-background:new    ;}
	.st7{fill:#7649BB;}
	.st8{fill:#00A9E5;}
	.st9{fill:#353535;}
	.st10{fill:#00BFB3;}
	.st11{fill:#019B8F;}
	.st12{fill:#F9B110;}
	.st13{fill:#FED10A;}
	.st14{fill:#9FEAF9;}
	.st15{fill:#41B883;}
	.st16{fill:#34495E;}
	.st17{fill:#13A8C2;}
	.st18{fill:#689F63;}
	.st19{clip-path:url(#SVGID_2_);}
	.st20{fill:url(#path30_1_);}
	.st21{clip-path:url(#SVGID_4_);}
	.st22{fill:url(#path46_1_);}
	.st23{clip-path:url(#SVGID_6_);}
	.st24{fill:url(#path62_1_);}
	.st25{display:inline;fill:#A41E11;}
	.st26{display:inline;fill:#D82C20;}
	.st27{display:inline;fill:#FFFFFF;}
	.st28{display:inline;fill:#7A0C00;}
	.st29{display:inline;fill:#AD2115;}
	.st30{fill:#00C58E;}
	.st31{fill:#2F495E;}
	.st32{fill:#108775;}
</style>
<g class="st0">
	<path class="st1" d="M79.5,43.8c34.2-13.7,76.2,11.6,79.7,48.3c5.5,33-21.9,66.6-55.3,67.5c-31.8,3.2-62.5-23.8-63.4-55.7
		C38.1,78,55.1,52.3,79.5,43.8L79.5,43.8z"/>
	<path class="st2" d="M83.9,96.6c14.5-11.8,28.6-24.1,43.4-35.6c-7.8,11.9-15.7,23.7-23.5,35.6C97.2,96.7,90.5,96.7,83.9,96.6
		L83.9,96.6z M96.1,103.2c6.7,0,13.3,0,20,0.1c-14.6,11.8-28.7,24.1-43.5,35.6C80.4,127,88.4,115.2,96.1,103.2L96.1,103.2z"/>
</g>
<g class="st0">
	<g id="Logo_1_" transform="translate(435.000000, 387.000000)" class="st3">
		<g id="Monogram_1_" transform="translate(0.000000, 23.000000)" class="st4">
			<g>
				<path id="Combined-Shape-Copy_1_" class="st5" d="M-314.1-287.1v-41.3c0-1.5-1.2-2.7-2.7-2.7h-41.1v-42.6h83.5
					c1.5,0,2.7,1.2,2.7,2.7v83.9H-314.1z"/>
				<path id="Rectangle-Copy-6_1_" class="st6" d="M-357.8-373.6v42.6H-397c-0.7,0-1.3-0.6-1.3-1.3c0-0.4,0.1-0.7,0.4-0.9
					L-357.8-373.6z"/>
				<path id="Rectangle-Copy-7_1_" class="st6" d="M-314.1-247.7v-39.4h42.4l-40.1,40.3c-0.5,0.5-1.4,0.5-1.9,0
					C-313.9-247-314.1-247.4-314.1-247.7z"/>
				<path id="Rectangle-Copy-8_1_" class="st6" d="M-357.8-331h42.4c0.7,0,1.3,0.6,1.3,1.3v42.6h-41.1c-1.5,0-2.7-1.2-2.7-2.7V-331z
					"/>
			</g>
		</g>
	</g>
</g>
<g id="Calque_3" class="st0">
	<g class="st3">
		<path class="st7" d="M63.2,162.1c-5.6-1.3-11-2.8-15.9-6.1c-8.1-5.3-11.9-13.1-12.6-22.5c-1.2-15.2,5.7-26.7,17.1-36
			c1.8-1.4,2.4-1,3.2,1.1c1.6,4.1,1,7-2.5,10.1c-6.1,5.5-10,12.4-10.1,20.9c-0.2,13,9.5,22.9,22.6,23.8c15.2,1,27.5-5.1,38.9-14.2
			c5.1-4,9-9,12.3-14.6c0.8-1.4,0.9-2.5,0-4c-2.9-5.2-1.2-10.9,3.8-13.4c4.8-2.5,10.7-0.4,13,4.6c2.3,5-0.1,10.5-5.5,12.9
			c-1.2,0.5-2.2,1.2-2.8,2.3C113.8,146.8,97,158,75,161.8c-0.3,0.1-0.5,0.2-0.8,0.3C70.5,162.1,66.8,162.1,63.2,162.1z"/>
		<path class="st7" d="M123.1,162.1c-3.9-1.3-7.9-1.8-11.7-3.5c-3.1-1.4-2.9-1.5-0.7-3.7c3.2-3.2,6.2-3.9,10.8-2.4
			c7.8,2.6,15.8,2.7,23.4-1.3c9.6-5.1,14.4-16.3,11.2-26.7c-3.7-12.2-11.9-20.6-22.8-26.7c-9.2-5.2-19.2-7.7-29.7-8.2
			c-2.2-0.1-4,0.6-5.6,2.4c-3.7,4.3-9.9,4.6-13.7,0.9c-3.8-3.6-4-9.7-0.4-13.6c3.7-3.9,9.7-3.9,13.8,0.1c1.3,1.3,2.6,1.8,4.3,1.8
			c17.9,0.1,34,5.5,47.4,17.7c9,8.2,15.2,18,16,30.4c0.9,12.7-5,21.9-15.9,28.2c-4.1,2.4-8.6,3.5-13.1,4.7
			C132,162.1,127.6,162.1,123.1,162.1z"/>
		<path class="st7" d="M98.9,37.9c13,0.3,21.9,7.2,28.2,18c3.7,6.2,5.4,13.1,6.4,20.1c0.3,2.2-0.3,3.2-2.7,2.4
			c-0.9-0.3-1.8-0.7-2.8-0.8c-2.6-0.3-3.3-2-3.8-4.3c-1.6-8.3-4.8-15.8-11.2-21.6c-4.7-4.3-10.3-5.9-16.7-5
			c-14.4,2.2-22.6,11.8-25.9,27.7c-2.9,13.9-0.8,27.4,5.6,40.1c1,2.1,2.2,3.2,4.7,3.5c5.5,0.6,9,5.9,7.9,11.2c-1,5.1-6.1,8.6-11,7.6
			c-5.5-1.1-8.9-6.3-7.6-11.7c0.5-1.9,0.3-3.5-0.7-5.2c-9.3-18-11.9-36.6-4.7-55.9C69.1,52.1,77,43.6,89.1,39.4
			C92.2,38.3,95.5,37.7,98.9,37.9z"/>
	</g>
</g>
<g id="Calque_4" class="st0">
	<g id="Elasticsearch_1_" class="st3">
		<g>
			<path class="st8" d="M128.5,81.4H96.1c0.2,0.8,0.5,1.6,0.6,2.2c1.1,3.7,1.7,7.6,2,11.6c0.2,1.6,0.2,3.3,0.2,4.8s0,3.3-0.2,4.8
				c-0.3,4-0.9,7.9-2,11.6c-0.2,0.8-0.5,1.6-0.6,2.2h32.4c10.2,0,18.4-8.4,18.4-18.6S138.8,81.4,128.5,81.4z"/>
			<path class="st9" d="M98.8,104.8c0.2-1.6,0.2-3.3,0.2-4.8c0-1.6,0-3.3-0.2-4.8c-0.3-4-0.9-7.9-2-11.6c-0.2-0.8-0.5-1.6-0.6-2.2
				H46.1c-1.9,5.9-2.8,12.1-2.8,18.6c0,6.5,0.9,12.7,2.8,18.6h50.1c0.2-0.8,0.5-1.6,0.6-2.2C97.8,112.7,98.4,108.8,98.8,104.8z"/>
		</g>
		<g>
			<path class="st10" d="M134.1,124.8H93.8c-1.2,2.8-2.6,5.4-4.2,7.9c-2.3,3.9-5.1,7.3-8.2,10.5c-1.1,1.1-2.2,2-3.3,3.1
				c-2.2,2-4.7,3.7-7.1,5.4c9.8,6.5,21.5,10.2,34.1,10.2c21.5,0,40.5-11,51.6-27.6C151,128.5,142.9,124.8,134.1,124.8z"/>
			<path class="st11" d="M89.6,132.7c1.6-2.5,2.9-5.1,4.2-7.9H48.4c4.8,11,12.7,20.5,22.8,27c2.5-1.7,4.8-3.4,7.1-5.4
				c1.1-0.9,2.2-2,3.3-3.1C84.5,140.1,87.3,136.6,89.6,132.7z"/>
		</g>
		<g>
			<path class="st12" d="M81.4,56.8c-1.1-1.1-2.2-2-3.3-3.1c-2.2-2-4.7-3.7-7.1-5.4c-9.9,6.5-17.8,16-22.8,27h45.4
				c-1.2-2.8-2.6-5.4-4.2-7.9C87.3,63.4,84.5,59.8,81.4,56.8z"/>
			<path class="st13" d="M105.1,38C92.6,38,80.8,41.7,71,48.2c2.5,1.7,4.8,3.4,7.1,5.4c1.1,0.9,2.2,2,3.3,3.1
				c3.1,3.3,5.9,6.7,8.2,10.5c1.6,2.5,2.9,5.1,4.2,7.9h40.3c8.8,0,16.9-3.7,22.6-9.6C145.6,49,126.7,38,105.1,38z"/>
		</g>
	</g>
</g>
<g id="Calque_5" class="st0">
	<g class="st3">
		<path class="st14" d="M82.3,62.9c-17-3.1-30.4,0.1-35.8,9.4c-4,6.9-2.8,16.1,2.8,25.9c0.5,0.8,1.5,1.2,2.4,0.7s1.2-1.5,0.7-2.4
			c0,0,0,0,0-0.1c-5.1-8.8-6-16.8-2.8-22.4C54,66.4,66,63.5,81.7,66.4c0.9,0.2,1.8-0.5,2-1.4C83.9,64,83.3,63.1,82.3,62.9z
			 M58.2,110.2c6.9,7.6,15.8,14.6,26,20.5c24.6,14.2,50.9,18,63.8,9.2c0.8-0.5,1-1.6,0.5-2.4s-1.6-1-2.4-0.5c0,0,0,0-0.1,0
			c-11.6,7.9-36.5,4.3-60.1-9.3c-9.9-5.7-18.5-12.6-25.1-19.8c-0.6-0.7-1.8-0.8-2.5-0.1S57.5,109.4,58.2,110.2
			C58.2,110.2,58.2,110.2,58.2,110.2z"/>
		<path class="st14" d="M143.8,108.1c11.1-13.1,15-26.4,9.7-35.6c-3.9-6.8-12.2-10.4-23.3-10.5c-1,0-1.7,0.8-1.7,1.7
			c0,0.9,0.8,1.7,1.7,1.7c9.9,0.1,17.1,3.2,20.3,8.8c4.4,7.7,1,19.5-9.3,31.6c-0.6,0.7-0.6,1.8,0.2,2.5S143.2,108.8,143.8,108.1
			C143.8,108.1,143.8,108.1,143.8,108.1z M115.2,63.5c-10.1,2.2-20.8,6.4-31,12.3c-25.4,14.7-42,36.3-39.7,52c0.1,0.9,1,1.6,2,1.5
			c1-0.1,1.6-1,1.5-2c0,0,0,0,0,0c-2-13.9,13.7-34.5,38-48.5c10-5.8,20.3-9.8,30-11.9c0.9-0.2,1.6-1.1,1.4-2.1
			C117.2,63.9,116.2,63.3,115.2,63.5C115.3,63.5,115.3,63.5,115.2,63.5L115.2,63.5z"/>
		<path class="st14" d="M74,138.8c5.8,16.2,15.3,26.2,26,26.2c7.8,0,15-5.3,20.7-14.7c0.5-0.8,0.3-1.9-0.6-2.4s-1.9-0.3-2.4,0.6
			c0,0,0,0,0,0c-5.1,8.4-11.3,13-17.7,13c-8.9,0-17.4-8.9-22.8-23.9c-0.3-0.9-1.3-1.4-2.2-1.1C74.2,136.8,73.7,137.8,74,138.8
			C74,138.7,74,138.7,74,138.8L74,138.8z M127.2,135.6c3-9.6,4.6-20.7,4.6-32.3c0-28.9-10.1-53.7-24.5-60.1c-0.9-0.4-1.9,0-2.3,0.9
			c-0.4,0.9,0,1.8,0.9,2.3c12.8,5.7,22.4,29.3,22.4,56.9c0,11.2-1.6,22-4.5,31.3c-0.3,0.9,0.2,1.9,1.1,2.2S126.8,136.5,127.2,135.6
			C127.1,135.6,127.2,135.6,127.2,135.6L127.2,135.6z M160,133.9c0-4.6-3.7-8.3-8.3-8.3s-8.3,3.7-8.3,8.3s3.7,8.3,8.3,8.3
			S160,138.5,160,133.9z M156.5,133.9c0,2.7-2.2,4.9-4.9,4.9c-2.7,0-4.9-2.2-4.9-4.9s2.2-4.9,4.9-4.9
			C154.3,129,156.5,131.2,156.5,133.9z M48.4,142.2c4.6,0,8.3-3.7,8.3-8.3s-3.7-8.3-8.3-8.3c-4.6,0-8.3,3.7-8.3,8.3
			S43.8,142.2,48.4,142.2z M48.4,138.7c-2.7,0-4.8-2.2-4.8-4.9s2.2-4.9,4.8-4.9c2.7,0,4.8,2.2,4.8,4.9S51,138.7,48.4,138.7z"/>
		<path class="st14" d="M100.1,51.7c4.6,0,8.3-3.7,8.3-8.3s-3.7-8.3-8.3-8.3c-4.6,0-8.3,3.7-8.3,8.3S95.5,51.7,100.1,51.7z
			 M100.1,48.2c-2.7,0-4.8-2.2-4.8-4.8s2.2-4.8,4.8-4.8s4.8,2.2,4.8,4.8S102.7,48.2,100.1,48.2z M101.3,109.2
			c-3.3,0.7-6.5-1.4-7.2-4.6c-0.7-3.3,1.4-6.5,4.6-7.2c3.3-0.7,6.5,1.4,7.2,4.6C106.7,105.3,104.6,108.5,101.3,109.2z"/>
	</g>
</g>
<g id="Calque_6" class="st0">
	<g transform="matrix(1.3333 0 0 -1.3333 -76.311 313.34)" class="st3">
		<g transform="translate(178.06 235.01)">
			<path class="st15" d="M-33.5-30.4l-12.3-21.3l-12.3,21.3h-41l53.3-92.2L7.4-30.4H-33.5z"/>
		</g>
		<g transform="translate(178.06 235.01)">
			<path class="st16" d="M-33.5-30.4l-12.3-21.3l-12.3,21.3h-19.7l32-55.3l32,55.3C-13.9-30.4-33.5-30.4-33.5-30.4z"/>
		</g>
	</g>
</g>
<g id="Calque_7" class="st0">
	<g class="st3">
		<path class="st17" d="M49.6,162c0,0-47.4-75.4,50.1-124v124H49.6z"/>
		<path class="st17" d="M114.8,162V85.1c0,0,15.6,25.4,47.2,76.9H114.8z"/>
	</g>
</g>
<g id="Calque_8" class="st0">
	<g class="st3">
		<path class="st18" d="M100,167.6c-1.8,0-3.6-0.5-5.2-1.4l-16.5-9.8c-2.5-1.4-1.3-1.9-0.4-2.1c3.3-1.1,4-1.4,7.5-3.4
			c0.4-0.2,0.8-0.1,1.2,0.1l12.7,7.5c0.5,0.3,1.1,0.3,1.5,0l49.6-28.6c0.5-0.3,0.8-0.8,0.8-1.3V71.4c0-0.6-0.3-1.1-0.8-1.4
			l-49.5-28.6c-0.5-0.3-1.1-0.3-1.5,0L49.7,70c-0.5,0.3-0.8,0.8-0.8,1.3v57.2c0,0.6,0.3,1.1,0.8,1.3l13.6,7.8
			c7.4,3.7,11.9-0.7,11.9-5V76.2c0-0.8,0.6-1.4,1.4-1.4h6.3c0.8,0,1.4,0.6,1.4,1.4v56.5c0,9.8-5.4,15.5-14.7,15.5
			c-2.9,0-5.1,0-11.4-3.1l-13-7.5c-3.2-1.9-5.2-5.3-5.2-9.1V71.3c0-3.7,2-7.2,5.2-9l49.6-28.6c3.1-1.8,7.3-1.8,10.4,0l49.6,28.6
			c3.2,1.8,5.2,5.3,5.2,9v57.2c0,3.7-2,7.2-5.2,9l-49.6,28.6C103.6,167.1,101.8,167.6,100,167.6L100,167.6z"/>
		<path class="st18" d="M117.5,95.7c-15.4-2-17-3.1-17-6.7c0-3,1.3-6.9,12.7-6.9c10.2,0,13.9,2.2,15.5,9.1c0.1,0.6,0.7,1.1,1.4,1.1
			h6.4c0.4,0,0.8-0.2,1.1-0.5c0.3-0.3,0.4-0.7,0.4-1.1c-1-11.8-8.9-17.3-24.7-17.3c-14.1,0-22.6,6-22.6,15.9
			c0,10.9,8.4,13.8,22,15.2c16.2,1.6,17.5,4,17.5,7.2c0,5.6-4.4,7.9-14.9,7.9c-13.1,0-16-3.3-17-9.8c-0.1-0.7-0.7-1.2-1.4-1.2h-6.4
			c-0.8,0-1.4,0.6-1.4,1.4c0,8.3,4.6,18.3,26.2,18.3l-0.1,0.1c15.7,0,24.7-6.2,24.7-17C140,100.6,132.8,97.7,117.5,95.7z"/>
	</g>
</g>
<g id="Calque_9" class="st0">
	<g id="g14" class="st3">
		<g>
			<g>
				<defs>
					<path id="SVGID_1_" d="M103.2,169.8l-3.8-1.2c0,0,0.5-19-6.4-20.3c-4.5-5.2,0.7-223.1,17.1-0.8c0,0-5.6,2.8-6.7,7.6
						C102.4,159.9,103.2,169.8,103.2,169.8z"/>
				</defs>
				<clipPath id="SVGID_2_">
					<use xlink:href="#SVGID_1_"  style="overflow:visible;"/>
				</clipPath>
				<g id="g16" class="st19">
					
						<linearGradient id="path30_1_" gradientUnits="userSpaceOnUse" x1="2.6173" y1="-0.8525" x2="3.6175" y2="-0.8525" gradientTransform="matrix(43.0493 14.5243 -13.1019 38.6334 -45.4259 96.3171)">
						<stop  offset="0" style="stop-color:#929669"/>
						<stop  offset="0.2308" style="stop-color:#929669"/>
						<stop  offset="1" style="stop-color:#FDFCF1"/>
					</linearGradient>
					<path id="path30" class="st20" d="M103.2,169.8l-3.8-1.2c0,0,0.5-19-6.4-20.3c-4.5-5.2,0.7-223.1,17.1-0.8c0,0-5.6,2.8-6.7,7.6
						C102.4,159.9,103.2,169.8,103.2,169.8"/>
				</g>
			</g>
		</g>
	</g>
	<g id="g32" class="st3">
		<g>
			<g>
				<defs>
					<path id="SVGID_3_" d="M105.2,151.5c0,0,32.5-21.4,24.9-65.9c-7.3-32.3-24.7-43-26.5-47c-2.1-2.9-4.1-8-4.1-8l1.4,90.1
						C100.9,120.7,98,148.2,105.2,151.5L105.2,151.5z"/>
				</defs>
				<clipPath id="SVGID_4_">
					<use xlink:href="#SVGID_3_"  style="overflow:visible;"/>
				</clipPath>
				<g id="g34" class="st21">
					
						<linearGradient id="path46_1_" gradientUnits="userSpaceOnUse" x1="1.3285" y1="-1.459" x2="2.3285" y2="-1.459" gradientTransform="matrix(30.1458 117.0264 -125.9163 20.1877 -129.5627 -94.5974)">
						<stop  offset="0" style="stop-color:#45AA3A"/>
						<stop  offset="1" style="stop-color:#3D9439"/>
					</linearGradient>
					<path id="path46" class="st22" d="M105.2,151.5c0,0,32.5-21.4,24.9-65.9c-7.3-32.3-24.7-43-26.5-47c-2.1-2.9-4.1-8-4.1-8
						l1.4,90.1C100.9,120.7,98,148.2,105.2,151.5"/>
				</g>
			</g>
		</g>
	</g>
	<g id="g48" class="st3">
		<g>
			<g>
				<defs>
					<path id="SVGID_5_" d="M97.6,152.7c0,0-30.5-20.8-28.8-57.6C70.5,58.4,92.1,40.3,96.3,37c2.7-2.9,2.8-4,3-6.9
						c1.9,4.1,1.6,61,1.8,67.7C101.9,123.8,99.7,147.8,97.6,152.7z"/>
				</defs>
				<clipPath id="SVGID_6_">
					<use xlink:href="#SVGID_5_"  style="overflow:visible;"/>
				</clipPath>
				<g id="g50" class="st23">
					
						<linearGradient id="path62_1_" gradientUnits="userSpaceOnUse" x1="2.0205" y1="-0.1594" x2="3.0206" y2="-0.1594" gradientTransform="matrix(52.7619 -11.988 16.4871 49.2637 -38.4052 130.9927)">
						<stop  offset="0" style="stop-color:#41A83B"/>
						<stop  offset="1" style="stop-color:#5EBC44"/>
					</linearGradient>
					<path id="path62" class="st24" d="M97.6,152.7c0,0-30.5-20.8-28.8-57.6C70.5,58.4,92.1,40.3,96.3,37c2.7-2.9,2.8-4,3-6.9
						c1.9,4.1,1.6,61,1.8,67.7C101.9,123.8,99.7,147.8,97.6,152.7"/>
				</g>
			</g>
		</g>
	</g>
</g>
<g class="st0">
	<path class="st25" d="M161.3,130.9c-7.1,3.7-43.9,18.8-51.7,22.9c-7.8,4.1-12.2,4-18.4,1.1c-6.2-3-45.3-18.8-52.4-22.1
		c-3.5-1.7-5.4-3.1-5.4-4.4v-13.4c0,0,50.9-11.1,59.2-14c8.2-3,11.1-3.1,18.1-0.5c7,2.6,48.8,10.1,55.8,12.6c0,0,0,12,0,13.3
		C166.5,127.6,164.9,129,161.3,130.9L161.3,130.9z"/>
	<path class="st26" d="M161.3,117.5c-7.1,3.7-43.9,18.8-51.7,22.9c-7.8,4.1-12.2,4-18.4,1.1c-6.2-3-45.3-18.8-52.4-22.1
		c-7-3.4-7.2-5.7-0.3-8.4c6.9-2.7,45.8-18,54.1-20.9c8.2-2.9,11.1-3.1,18.1-0.5c7,2.6,43.5,17.1,50.5,19.6
		C168.1,111.7,168.4,113.8,161.3,117.5L161.3,117.5z"/>
	<path class="st25" d="M161.3,109c-7.1,3.7-43.9,18.8-51.7,22.9c-7.8,4.1-12.2,4-18.4,1.1c-6.2-3-45.3-18.8-52.4-22.1
		c-3.5-1.7-5.4-3.1-5.4-4.4V92.9c0,0,50.9-11.1,59.2-14c8.2-2.9,11.1-3.1,18.1-0.5c7,2.6,48.8,10.1,55.8,12.6c0,0,0,12,0,13.3
		C166.5,105.6,164.9,107.1,161.3,109z"/>
	<path class="st26" d="M161.3,95.5c-7.1,3.7-43.9,18.8-51.7,22.9c-7.8,4.1-12.2,4-18.4,1.1c-6.2-3-45.3-18.8-52.4-22.1
		c-7-3.4-7.2-5.7-0.3-8.4c6.9-2.7,45.8-18,54.1-20.9c8.2-2.9,11.1-3.1,18.1-0.5c7,2.6,43.5,17.1,50.5,19.6
		C168.1,89.7,168.4,91.8,161.3,95.5L161.3,95.5z"/>
	<path class="st25" d="M161.3,86.2c-7.1,3.7-43.9,18.8-51.7,22.9c-7.8,4.1-12.2,4-18.4,1.1c-6.2-3-45.3-18.8-52.4-22.1
		c-3.5-1.7-5.4-3.1-5.4-4.4V70.2c0,0,50.9-11.1,59.2-14c8.2-3,11.1-3.1,18.1-0.5c7,2.6,48.8,10.1,55.8,12.6c0,0,0,12,0,13.3
		C166.5,82.9,164.9,84.4,161.3,86.2L161.3,86.2z"/>
	<path class="st26" d="M161.3,72.8c-7.1,3.7-43.9,18.8-51.7,22.9c-7.8,4.1-12.2,4-18.4,1.1c-6.2-3-45.3-18.8-52.4-22.1
		s-7.2-5.7-0.3-8.4c6.9-2.7,45.8-18,54.1-20.9c8.2-3,11.1-3.1,18.1-0.5c7,2.6,43.5,17.1,50.5,19.6C168.1,67,168.4,69.1,161.3,72.8
		L161.3,72.8z"/>
	<polygon class="st27" points="117.4,59.9 105.9,61 103.3,67.3 99.2,60.3 85.9,59.1 95.8,55.6 92.8,50.1 102.1,53.7 110.9,50.8 
		108.5,56.5 	"/>
	<polygon class="st27" points="102.6,90 81.1,81 111.9,76.3 	"/>
	<ellipse class="st27" cx="72.8" cy="69.7" rx="16.5" ry="6.4"/>
	<polygon class="st28" points="131,61.6 149.3,68.8 131.1,76 	"/>
	<polygon class="st29" points="110.9,69.5 131,61.6 131.1,76 129.1,76.7 	"/>
</g>
<g>
	<path class="st30" d="M109.7,77.1l-4.7,8.1L89,57.5l-49.1,85h33.2c0,4.5,3.6,8.1,8.1,8.1H39.9c-2.9,0-5.6-1.5-7-4
		c-1.4-2.5-1.4-5.6,0-8.1l49.1-85c1.4-2.5,4.1-4,7-4s5.6,1.5,7,4C96,53.4,109.7,77.1,109.7,77.1z"/>
	<path class="st31" d="M145.1,138.5l-30.8-53.3l-4.7-8.1l-4.7,8.1l-30.8,53.3c-1.4,2.5-1.4,5.6,0,8.1c1.4,2.5,4.1,4,7,4h56.8
		c2.9,0,5.6-1.5,7-4C146.5,144.1,146.5,141,145.1,138.5L145.1,138.5L145.1,138.5z M81.2,142.5l28.4-49.2l28.4,49.2L81.2,142.5
		L81.2,142.5z"/>
	<path class="st32" d="M167.1,146.6c-1.4,2.5-4.1,4-7,4h-22c4.5,0,8.1-3.6,8.1-8.1h13.9l-39.4-68.3l-6.3,10.9l-4.7-8.1l4-6.9
		c1.4-2.5,4.1-4,7-4c2.9,0,5.6,1.5,7,4l39.4,68.3C168.5,141,168.5,144.1,167.1,146.6z"/>
</g>
</svg>
