<?xml version="1.0" encoding="utf-8"?>
<!-- Generator: Adobe Illustrator 23.0.3, SVG Export Plug-In . SVG Version: 6.00 Build 0)  -->
<svg version="1.1" xmlns="http://www.w3.org/2000/svg" xmlns:xlink="http://www.w3.org/1999/xlink" x="0px" y="0px"
	 viewBox="0 0 200 200" style="enable-background:new 0 0 200 200;" xml:space="preserve">
<style type="text/css">
	.st0{display:none;}
	.st1{display:inline;}
	.st2{opacity:0.9746;}
	.st3{fill-rule:evenodd;clip-rule:evenodd;fill:#8E75FF;}
	.st4{opacity:0.405;fill-rule:evenodd;clip-rule:evenodd;fill:#8E75FF;enable-background:new    ;}
	.st5{fill:#7649BB;}
	.st6{fill:#00A9E5;}
	.st7{fill:#353535;}
	.st8{fill:#00BFB3;}
	.st9{fill:#019B8F;}
	.st10{fill:#F9B110;}
	.st11{fill:#FED10A;}
	.st12{fill:#9FEAF9;}
	.st13{fill:#41B883;}
	.st14{fill:#34495E;}
	.st15{fill:#13A8C2;}
	.st16{fill:#689F63;}
	.st17{clip-path:url(#SVGID_2_);}
	.st18{fill:url(#path30_1_);}
	.st19{clip-path:url(#SVGID_4_);}
	.st20{fill:url(#path46_1_);}
	.st21{clip-path:url(#SVGID_6_);}
	.st22{fill:url(#path62_1_);}
</style>
<g id="Calque_1" class="st0">
	<g id="Logo_1_" transform="translate(435.000000, 387.000000)" class="st1">
		<g id="Monogram_1_" transform="translate(0.000000, 23.000000)" class="st2">
			<g>
				<path id="Combined-Shape-Copy_1_" class="st3" d="M-314.07-287.09v-41.27c0-1.47-1.19-2.66-2.66-2.66h-41.06v-42.6h83.46
					c1.47,0,2.66,1.19,2.66,2.66v83.87H-314.07z"/>
				<path id="Rectangle-Copy-6_1_" class="st4" d="M-357.8-373.62v42.6h-39.19c-0.73,0-1.33-0.6-1.33-1.33
					c0-0.35,0.14-0.69,0.39-0.94L-357.8-373.62z"/>
				<path id="Rectangle-Copy-7_1_" class="st4" d="M-314.07-247.71v-39.38h42.4l-40.12,40.31c-0.52,0.52-1.36,0.52-1.88,0
					C-313.93-247.02-314.07-247.36-314.07-247.71z"/>
				<path id="Rectangle-Copy-8_1_" class="st4" d="M-357.8-331.02h42.39c0.73,0,1.33,0.6,1.33,1.33v42.6h-41.06
					c-1.47,0-2.66-1.19-2.66-2.66V-331.02z"/>
			</g>
		</g>
	</g>
</g>
<g id="Calque_3" class="st0">
	<g class="st1">
		<path class="st5" d="M63.15,162.1c-5.59-1.28-11.05-2.84-15.93-6.06c-8.09-5.34-11.89-13.12-12.64-22.48
			c-1.23-15.23,5.69-26.69,17.11-35.97c1.75-1.42,2.37-1.03,3.16,1.06c1.57,4.08,0.99,6.96-2.48,10.09
			c-6.06,5.47-10.01,12.38-10.12,20.87c-0.18,13.02,9.53,22.92,22.56,23.79c15.16,1.02,27.53-5.12,38.92-14.18
			c5.07-4.03,9.02-9.03,12.33-14.58c0.84-1.42,0.87-2.5,0.04-3.98c-2.87-5.15-1.16-10.89,3.8-13.43c4.85-2.48,10.73-0.41,13.01,4.58
			c2.27,4.97-0.06,10.53-5.49,12.87c-1.21,0.52-2.19,1.16-2.83,2.34c-10.75,19.82-27.57,30.99-49.57,34.75
			c-0.28,0.05-0.53,0.22-0.8,0.34C70.52,162.1,66.84,162.1,63.15,162.1z"/>
		<path class="st5" d="M123.11,162.1c-3.87-1.25-7.93-1.82-11.68-3.5c-3.07-1.37-2.95-1.46-0.68-3.74
			c3.18-3.19,6.23-3.93,10.79-2.39c7.78,2.63,15.83,2.71,23.44-1.31c9.63-5.09,14.38-16.3,11.24-26.72
			c-3.68-12.24-11.94-20.58-22.79-26.74c-9.23-5.24-19.19-7.71-29.71-8.17c-2.24-0.1-4,0.55-5.59,2.39
			c-3.68,4.27-9.87,4.56-13.72,0.91c-3.85-3.64-4.02-9.74-0.39-13.59c3.67-3.89,9.73-3.91,13.76,0.1c1.28,1.27,2.57,1.82,4.35,1.83
			c17.94,0.11,33.98,5.46,47.38,17.65c8.97,8.15,15.16,17.98,15.98,30.37c0.85,12.74-5.03,21.92-15.91,28.19
			c-4.09,2.36-8.6,3.47-13.07,4.73C132.04,162.1,127.57,162.1,123.11,162.1z"/>
		<path class="st5" d="M98.87,37.94c13.02,0.29,21.86,7.24,28.23,17.99c3.67,6.19,5.39,13.05,6.35,20.12
			c0.3,2.23-0.31,3.22-2.68,2.37c-0.91-0.33-1.83-0.73-2.78-0.85c-2.6-0.35-3.33-2-3.79-4.35c-1.59-8.27-4.83-15.77-11.17-21.57
			c-4.71-4.31-10.26-5.94-16.65-4.98c-14.45,2.17-22.58,11.8-25.95,27.68c-2.95,13.92-0.77,27.37,5.58,40.14
			c1.03,2.07,2.17,3.23,4.72,3.52c5.48,0.63,9.01,5.93,7.94,11.22c-1.04,5.12-6.06,8.56-11.03,7.56c-5.49-1.11-8.94-6.33-7.55-11.74
			c0.5-1.94,0.25-3.47-0.66-5.23c-9.34-17.96-11.94-36.56-4.72-55.9C69.12,52.11,77,43.61,89.1,39.4
			C92.24,38.31,95.48,37.73,98.87,37.94z"/>
	</g>
</g>
<g id="Calque_4" class="st0">
	<g id="Elasticsearch_1_" class="st1">
		<g>
			<path class="st6" d="M128.52,81.4H96.13c0.15,0.77,0.47,1.55,0.62,2.17c1.08,3.72,1.7,7.6,2.01,11.63
				c0.15,1.55,0.15,3.25,0.15,4.8c0,1.55,0,3.26-0.15,4.81c-0.31,4.03-0.93,7.91-2.01,11.62c-0.15,0.78-0.47,1.55-0.62,2.17h32.39
				c10.23,0,18.44-8.37,18.44-18.6S138.75,81.4,128.52,81.4z"/>
			<path class="st7" d="M98.76,104.81c0.15-1.55,0.15-3.26,0.15-4.81c0-1.55,0-3.25-0.15-4.81c-0.31-4.03-0.93-7.9-2.02-11.62
				c-0.15-0.78-0.47-1.55-0.62-2.17H46.06c-1.86,5.89-2.79,12.09-2.79,18.6c0,6.51,0.93,12.71,2.79,18.6h50.06
				c0.15-0.78,0.47-1.55,0.62-2.17C97.83,112.71,98.45,108.83,98.76,104.81z"/>
		</g>
		<g>
			<path class="st8" d="M134.1,124.8H93.8c-1.24,2.79-2.63,5.42-4.18,7.91c-2.32,3.88-5.11,7.29-8.22,10.54
				c-1.08,1.08-2.17,2.01-3.25,3.1c-2.17,2.02-4.65,3.72-7.13,5.43c9.76,6.51,21.54,10.23,34.1,10.23
				c21.54,0,40.45-11.01,51.61-27.59C150.99,128.52,142.93,124.8,134.1,124.8z"/>
			<path class="st9" d="M89.61,132.7c1.55-2.48,2.95-5.11,4.18-7.91H48.39c4.8,11.01,12.71,20.46,22.78,26.97
				c2.48-1.71,4.81-3.41,7.13-5.43c1.08-0.93,2.17-2.01,3.25-3.1C84.5,140.14,87.29,136.58,89.61,132.7z"/>
		</g>
		<g>
			<path class="st10" d="M81.4,56.75c-1.08-1.08-2.17-2.02-3.25-3.1c-2.17-2.02-4.65-3.72-7.13-5.42
				C61.1,54.74,53.19,64.19,48.23,75.2h45.41c-1.24-2.79-2.63-5.42-4.18-7.9C87.29,63.42,84.5,59.85,81.4,56.75z"/>
			<path class="st11" d="M105.11,38c-12.55,0-24.33,3.72-34.1,10.23c2.48,1.7,4.8,3.41,7.13,5.42c1.08,0.93,2.17,2.02,3.25,3.1
				c3.1,3.25,5.89,6.67,8.22,10.54c1.55,2.48,2.95,5.12,4.18,7.9h40.3c8.83,0,16.89-3.72,22.63-9.61C145.57,49,126.66,38,105.11,38z
				"/>
		</g>
	</g>
</g>
<g id="Calque_5" class="st0">
	<g class="st1">
		<path class="st12" d="M82.35,62.94c-16.99-3.09-30.42,0.14-35.77,9.42c-3.99,6.92-2.85,16.09,2.77,25.9
			c0.46,0.84,1.52,1.16,2.36,0.7s1.16-1.52,0.7-2.36c-0.01-0.02-0.02-0.04-0.04-0.07c-5.06-8.83-6.05-16.75-2.77-22.42
			c4.45-7.7,16.43-10.59,32.13-7.73c0.95,0.16,1.85-0.48,2-1.43C83.88,64.01,83.27,63.12,82.35,62.94z M58.18,110.18
			c6.87,7.55,15.79,14.63,25.97,20.5c24.64,14.23,50.88,18.03,63.81,9.21c0.8-0.53,1.03-1.61,0.5-2.41c-0.53-0.8-1.61-1.03-2.41-0.5
			c-0.02,0.01-0.03,0.02-0.05,0.03c-11.57,7.89-36.49,4.28-60.1-9.35c-9.87-5.7-18.52-12.56-25.14-19.83
			c-0.64-0.71-1.75-0.77-2.46-0.13c-0.71,0.64-0.77,1.75-0.13,2.46C58.17,110.17,58.17,110.17,58.18,110.18z"/>
		<path class="st12" d="M143.83,108.06c11.12-13.14,15.01-26.36,9.66-35.61c-3.93-6.81-12.24-10.4-23.29-10.55
			c-0.96,0-1.74,0.78-1.74,1.74c0,0.94,0.75,1.71,1.69,1.74c9.93,0.13,17.09,3.23,20.31,8.81c4.44,7.69,0.97,19.47-9.31,31.62
			c-0.63,0.73-0.55,1.83,0.18,2.46c0.73,0.63,1.83,0.55,2.46-0.18C143.81,108.08,143.82,108.07,143.83,108.06z M115.24,63.52
			c-10.06,2.16-20.76,6.37-31.04,12.3c-25.44,14.69-42.03,36.34-39.73,52.05c0.13,0.95,1.01,1.62,1.96,1.49
			c0.95-0.13,1.62-1.01,1.49-1.96c0-0.01,0-0.03-0.01-0.04C45.87,113.42,61.6,92.9,85.94,78.84c9.97-5.76,20.34-9.84,30.03-11.91
			c0.94-0.19,1.56-1.1,1.37-2.05c-0.19-0.94-1.1-1.56-2.05-1.37C115.28,63.51,115.26,63.52,115.24,63.52L115.24,63.52z"/>
		<path class="st12" d="M74.03,138.76C79.85,155,89.36,165,100.06,165c7.8,0,15.02-5.32,20.65-14.68c0.51-0.82,0.26-1.89-0.56-2.4
			c-0.82-0.51-1.89-0.26-2.4,0.56c-0.01,0.01-0.02,0.03-0.03,0.04c-5.06,8.42-11.27,12.99-17.67,12.99
			c-8.89,0-17.37-8.92-22.75-23.93c-0.31-0.91-1.29-1.4-2.21-1.1c-0.91,0.31-1.4,1.29-1.1,2.21
			C74.01,138.72,74.02,138.74,74.03,138.76L74.03,138.76z M127.15,135.58c3.01-9.62,4.63-20.72,4.63-32.29
			c0-28.86-10.1-53.74-24.49-60.13c-0.89-0.37-1.91,0.05-2.28,0.93c-0.36,0.86,0.02,1.85,0.87,2.25
			c12.83,5.7,22.42,29.31,22.42,56.94c0,11.22-1.57,21.97-4.47,31.25c-0.3,0.91,0.2,1.9,1.11,2.2c0.91,0.3,1.9-0.2,2.2-1.11
			C127.14,135.62,127.15,135.6,127.15,135.58L127.15,135.58z M159.96,133.88c0-4.6-3.73-8.34-8.34-8.34s-8.34,3.73-8.34,8.34
			s3.73,8.34,8.34,8.34S159.96,138.48,159.96,133.88z M156.48,133.88c0,2.68-2.17,4.85-4.85,4.85c-2.68,0-4.85-2.17-4.85-4.85
			s2.17-4.85,4.85-4.85C154.31,129.02,156.48,131.2,156.48,133.88z M48.37,142.21c4.61,0,8.34-3.73,8.34-8.34s-3.73-8.34-8.34-8.34
			c-4.6,0-8.34,3.73-8.34,8.34S43.77,142.21,48.37,142.21z M48.37,138.73c-2.68,0-4.85-2.17-4.85-4.85s2.17-4.85,4.85-4.85
			c2.68,0,4.85,2.17,4.85,4.85S51.05,138.73,48.37,138.73z"/>
		<path class="st12" d="M100.06,51.68c4.6,0,8.34-3.73,8.34-8.34S104.66,35,100.06,35c-4.6,0-8.34,3.73-8.34,8.34
			S95.46,51.68,100.06,51.68z M100.06,48.19c-2.68,0-4.85-2.17-4.85-4.85s2.17-4.85,4.85-4.85c2.68,0,4.85,2.17,4.85,4.85
			S102.74,48.19,100.06,48.19z M101.33,109.19c-3.26,0.7-6.46-1.37-7.17-4.62c-0.7-3.26,1.37-6.47,4.62-7.17
			c3.26-0.7,6.46,1.37,7.17,4.62C106.66,105.28,104.59,108.49,101.33,109.19z"/>
	</g>
</g>
<g id="Calque_6" class="st0">
	<g transform="matrix(1.3333 0 0 -1.3333 -76.311 313.34)" class="st1">
		<g transform="translate(178.06 235.01)">
			<path class="st13" d="M-33.53-30.38l-12.3-21.3l-12.3,21.3h-40.95l53.25-92.24L7.43-30.38H-33.53z"/>
		</g>
		<g transform="translate(178.06 235.01)">
			<path class="st14" d="M-33.53-30.38l-12.3-21.3l-12.3,21.3h-19.65l31.95-55.34l31.95,55.34H-33.53z"/>
		</g>
	</g>
</g>
<g id="Calque_7" class="st0">
	<g class="st1">
		<path class="st15" d="M49.56,162c0,0-47.4-75.43,50.11-124v124H49.56z"/>
		<path class="st15" d="M114.77,162V85.14c0,0,15.56,25.4,47.19,76.86H114.77z"/>
	</g>
</g>
<g id="Calque_8" class="st0">
	<g class="st1">
		<path class="st16" d="M100.02,167.64c-1.81,0-3.61-0.48-5.2-1.39l-16.55-9.8c-2.47-1.38-1.27-1.87-0.45-2.15
			c3.3-1.15,3.96-1.41,7.48-3.41c0.37-0.21,0.85-0.14,1.23,0.09l12.71,7.54c0.46,0.25,1.11,0.25,1.54,0l49.57-28.61
			c0.46-0.26,0.76-0.79,0.76-1.34v-57.2c0-0.57-0.3-1.08-0.77-1.36L100.8,41.41c-0.46-0.27-1.07-0.27-1.53,0L49.73,70
			c-0.48,0.27-0.79,0.81-0.79,1.35v57.2c0,0.55,0.3,1.07,0.77,1.33l13.57,7.84c7.37,3.69,11.87-0.66,11.87-5.03V76.24
			c0-0.81,0.63-1.43,1.44-1.43h6.28c0.78,0,1.43,0.62,1.43,1.43v56.48c0,9.83-5.36,15.47-14.68,15.47c-2.87,0-5.12,0-11.43-3.1
			l-13-7.49c-3.21-1.86-5.2-5.34-5.2-9.05v-57.2c0-3.72,1.99-7.2,5.2-9.03l49.62-28.63c3.14-1.77,7.31-1.77,10.42,0l49.56,28.64
			c3.2,1.85,5.2,5.31,5.2,9.03v57.2c0,3.71-2,7.17-5.2,9.03l-49.56,28.63c-1.59,0.92-3.39,1.39-5.22,1.39L100.02,167.64z"/>
		<path class="st16" d="M117.51,95.71c-15.38-2.04-16.95-3.09-16.95-6.7c0-2.98,1.33-6.95,12.73-6.95c10.19,0,13.93,2.2,15.49,9.06
			c0.14,0.64,0.72,1.12,1.39,1.12h6.44c0.4,0,0.78-0.18,1.06-0.47c0.27-0.3,0.42-0.69,0.38-1.1c-1-11.84-8.86-17.35-24.73-17.35
			c-14.14,0-22.58,5.96-22.58,15.95c0,10.86,8.39,13.85,21.96,15.19c16.23,1.59,17.5,3.96,17.5,7.15c0,5.55-4.44,7.9-14.89,7.9
			c-13.11,0-15.99-3.29-16.96-9.81c-0.11-0.7-0.71-1.22-1.41-1.22h-6.4c-0.8,0-1.44,0.63-1.44,1.43c0,8.35,4.55,18.31,26.24,18.31
			l-0.07,0.06c15.71,0,24.72-6.19,24.72-16.98C139.98,100.59,132.75,97.73,117.51,95.71z"/>
	</g>
</g>
<g id="Calque_9">
	<g id="g14">
		<g>
			<defs>
				<path id="SVGID_1_" d="M103.2,169.81l-3.75-1.24c0,0,0.48-18.96-6.36-20.28c-4.51-5.22,0.69-223.11,17.07-0.75
					c0,0-5.61,2.81-6.67,7.59C102.44,159.92,103.2,169.81,103.2,169.81z"/>
			</defs>
			<clipPath id="SVGID_2_">
				<use xlink:href="#SVGID_1_"  style="overflow:visible;"/>
			</clipPath>
			<g id="g16" class="st17">
				
					<linearGradient id="path30_1_" gradientUnits="userSpaceOnUse" x1="2.6176" y1="200.8527" x2="3.6176" y2="200.8527" gradientTransform="matrix(43.0493 14.5243 13.1019 -38.6334 -2665.8059 7822.9971)">
					<stop  offset="0" style="stop-color:#929669"/>
					<stop  offset="0.2308" style="stop-color:#929669"/>
					<stop  offset="1" style="stop-color:#FDFCF1"/>
				</linearGradient>
				<path id="path30" class="st18" d="M103.2,169.81l-3.75-1.24c0,0,0.48-18.96-6.36-20.28c-4.51-5.22,0.69-223.11,17.07-0.75
					c0,0-5.61,2.81-6.67,7.59C102.44,159.92,103.2,169.81,103.2,169.81"/>
			</g>
		</g>
	</g>
	<g id="g32">
		<g>
			<defs>
				<path id="SVGID_3_" d="M105.22,151.51c0,0,32.54-21.43,24.92-65.95c-7.34-32.34-24.68-42.97-26.54-47.03
					c-2.05-2.87-4.12-7.96-4.12-7.96l1.38,90.11C100.87,120.68,98,148.19,105.22,151.51L105.22,151.51z"/>
			</defs>
			<clipPath id="SVGID_4_">
				<use xlink:href="#SVGID_3_"  style="overflow:visible;"/>
			</clipPath>
			<g id="g34" class="st19">
				
					<linearGradient id="path46_1_" gradientUnits="userSpaceOnUse" x1="1.3286" y1="201.459" x2="2.3286" y2="201.459" gradientTransform="matrix(30.1458 117.0264 125.9163 -20.1877 -25312.8223 3942.9426)">
					<stop  offset="0" style="stop-color:#45AA3A"/>
					<stop  offset="1" style="stop-color:#3D9439"/>
				</linearGradient>
				<path id="path46" class="st20" d="M105.22,151.51c0,0,32.54-21.43,24.92-65.95c-7.34-32.34-24.68-42.97-26.54-47.03
					c-2.05-2.87-4.12-7.96-4.12-7.96l1.38,90.11C100.87,120.68,98,148.19,105.22,151.51"/>
			</g>
		</g>
	</g>
	<g id="g48">
		<g>
			<defs>
				<path id="SVGID_5_" d="M97.55,152.71c0,0-30.53-20.82-28.77-57.57C70.54,58.39,92.1,40.33,96.3,37.05
					c2.71-2.89,2.83-4.01,3.04-6.86c1.9,4.09,1.59,61.05,1.79,67.71C101.9,123.82,99.68,147.81,97.55,152.71z"/>
			</defs>
			<clipPath id="SVGID_6_">
				<use xlink:href="#SVGID_5_"  style="overflow:visible;"/>
			</clipPath>
			<g id="g50" class="st21">
				
					<linearGradient id="path62_1_" gradientUnits="userSpaceOnUse" x1="2.0205" y1="200.1593" x2="3.0205" y2="200.1593" gradientTransform="matrix(52.7619 -11.988 -16.4871 -49.2637 3259.0149 9983.7324)">
					<stop  offset="0" style="stop-color:#41A83B"/>
					<stop  offset="1" style="stop-color:#5EBC44"/>
				</linearGradient>
				<path id="path62" class="st22" d="M97.55,152.71c0,0-30.53-20.82-28.77-57.57C70.54,58.39,92.1,40.33,96.3,37.05
					c2.71-2.89,2.83-4.01,3.04-6.86c1.9,4.09,1.59,61.05,1.79,67.71C101.9,123.82,99.68,147.81,97.55,152.71"/>
			</g>
		</g>
	</g>
</g>
</svg>
